<?xml version="1.0" encoding="utf-8"?>
<!-- Generator: Adobe Illustrator 25.2.1, SVG Export Plug-In . SVG Version: 6.00 Build 0)  -->
<svg version="1.1" id="Layer_1" xmlns="http://www.w3.org/2000/svg" xmlns:xlink="http://www.w3.org/1999/xlink" x="0px" y="0px"
	 viewBox="0 0 94.95 54.46" style="enable-background:new 0 0 94.95 54.46;" xml:space="preserve">
<style type="text/css">
	.st0{fill:#FFFFFF;}
</style>
<g>
	<path class="st0" d="M93.45,45.01l1.5-4.19l-5.76-2.36l-1.67-1.77l-5.48-5.75l-2.36-20.56l-1.79-0.58l-0.56,0.42l-0.74,9.96
		l-1.04,0.09l-1.21-0.8l-0.09-0.78l-1.04-0.86l-0.8,0.3l-0.26-0.26L70.81,3.96l-0.47-0.47L54.14,1.25l-0.67-0.84L51.7,0l-5.91,2.46
		L43.74,29.9l-10.95,4.53l-0.17,1.01l-1.41,0.97h-0.49l-5.38,2.88v0.54l-4.85,2.25l-2.62,3.81c0,0-12.68,5.14-17.87,8.58
		c14.89-3.49,30.72-5.73,52.7-6.07h11.27c10.42,0.16,20.33,0.75,29.49,1.7c-0.38-0.79-0.52-1.62-0.52-2.42
		C92.94,46.84,93.12,45.95,93.45,45.01z"/>
</g>
</svg>
