<?xml version="1.0" encoding="utf-8"?>
<!-- Generator: Adobe Illustrator 23.0.3, SVG Export Plug-In . SVG Version: 6.00 Build 0)  -->
<svg version="1.1" id="TST_logotype" xmlns="http://www.w3.org/2000/svg" xmlns:xlink="http://www.w3.org/1999/xlink" x="0px"
	 y="0px" viewBox="0 0 505.1 225.5" style="enable-background:new 0 0 505.1 225.5;" xml:space="preserve">
<style type="text/css">
	.st0{fill:#FFFFFF;}
	.st1{fill:#B81C28;}
</style>
<g>
	<path d="M237.2,77c1,1.3,1.5,2.8,1.5,4.6c0,2.5-0.8,4.5-2.5,6.1c-1.6,1.6-3.7,2.4-6.1,2.4c-2.3,0-4.2-0.7-5.7-2.1
		c-1.5-1.4-2.4-3.3-2.8-5.8l4.1-0.9c0.2,1.6,0.5,2.6,1,3.2c0.8,1.2,2,1.7,3.6,1.7c1.3,0,2.3-0.4,3.1-1.3c0.8-0.8,1.2-1.9,1.2-3.2
		c0-0.5-0.1-1-0.2-1.4c-0.2-0.4-0.4-0.8-0.7-1.2c-0.3-0.4-0.7-0.7-1.2-1s-1.1-0.6-1.7-0.9l-2.6-1.1c-3.7-1.5-5.5-3.8-5.5-6.8
		c0-2,0.8-3.7,2.3-5c1.5-1.4,3.4-2,5.7-2c3.1,0,5.5,1.5,7.2,4.5l-3.3,1.9c-0.6-1.1-1.2-1.7-1.7-2.1c-0.6-0.4-1.3-0.6-2.2-0.6
		c-1.1,0-2,0.3-2.8,0.9c-0.7,0.6-1.1,1.4-1.1,2.4c0,1.3,1,2.3,2.9,3.1l2.7,1.1C234.6,74.7,236.2,75.8,237.2,77z M257.6,61.3
		l12.7,28.3h-4.4l-2.8-6.5h-11.4l-3,6.5h-4.3L257.6,61.3z M261.5,79.4l-4-9.1l-4.1,9.1H261.5z M284.6,81.5L277.2,63h-4.4l11.7,28.7
		l12-28.7h-4.4L284.6,81.5z M304,89.7h4V63h-4V89.7z M338.1,81.5l-19.4-20.3v28.5h4V71l19.4,20.3V63h-4V81.5z M366.8,79.6h6.6
		c-0.2,1.9-1.1,3.5-2.6,4.8c-1.6,1.3-3.4,2-5.3,2c-2.3,0-4.5-0.9-6.5-2.7c-2.1-1.9-3.2-4.4-3.2-7.3c0-2.9,1-5.3,2.9-7.2
		c1.9-1.9,4.3-2.9,7.1-2.9c3.1,0,5.8,1.5,8,4.4l2.9-2.7c-1.7-1.9-3.4-3.3-5.1-4.1c-1.8-0.9-3.8-1.3-5.8-1.3c-3.9,0-7.2,1.4-9.9,4.1
		c-2.7,2.7-4.1,6-4.1,9.8s1.3,7,4,9.7s5.9,4,9.6,4c3.8,0,7-1.4,9.5-4.2c1.1-1.2,1.9-2.6,2.3-4c0.5-1.5,0.7-3.3,0.7-5.3v-0.9h-11v3.8
		H366.8z M406.3,63h-4v26.7h11.9v-3.8h-7.8V63H406.3z M422.2,89.7h4V63h-4V89.7z M445.6,81.5L438.2,63h-4.4l11.7,28.7l12-28.7h-4.4
		L445.6,81.5z M465,89.7h14.7v-3.8H469V77h10.4v-3.8H469v-6.4h10.7V63H465L465,89.7L465,89.7z M503.5,77c-1-1.3-2.6-2.3-4.7-3.2
		l-2.7-1.1c-1.9-0.8-2.9-1.8-2.9-3.1c0-0.9,0.4-1.7,1.1-2.4c0.7-0.6,1.7-0.9,2.8-0.9c0.9,0,1.7,0.2,2.2,0.6c0.6,0.3,1.1,1,1.7,2.1
		l3.3-1.9c-1.7-3-4.1-4.5-7.2-4.5c-2.3,0-4.2,0.7-5.7,2s-2.3,3-2.3,5c0,3,1.8,5.2,5.5,6.8l2.6,1.1c0.7,0.3,1.2,0.6,1.7,0.9
		c0.5,0.3,0.9,0.7,1.2,1c0.3,0.4,0.5,0.8,0.7,1.2c0.1,0.4,0.2,0.9,0.2,1.4c0,1.3-0.4,2.4-1.2,3.2s-1.9,1.3-3.1,1.3
		c-1.6,0-2.8-0.6-3.6-1.7c-0.5-0.6-0.8-1.7-1-3.2l-4.1,0.9c0.4,2.5,1.3,4.4,2.8,5.8c1.5,1.4,3.4,2.1,5.7,2.1c2.4,0,4.5-0.8,6.1-2.4
		c1.6-1.6,2.5-3.6,2.5-6.1C505,79.8,504.5,78.3,503.5,77z"/>
	<path class="st0" d="M196.6,133.9c-6.5,6.1-12.9,12.2-19.4,18.3c-5.2,4.9-10.3,9.7-15.5,14.6c-5,4.7-10,9.4-15,14.1
		c-6,5.6-12,11.3-18,16.9c-6.8,6.3-13.5,12.7-20.3,19c-1.3,1.2-2.6,2.3-4.2,3.2c-3.3,1.8-8.6,1.2-11.4-1.4c-2.9-2.7-5.8-5.4-8.6-8.1
		c-5.3-5-10.6-10-15.9-15c-6.8-6.4-13.5-12.7-20.3-19.1c-6.2-5.8-12.3-11.6-18.5-17.4c-5-4.8-10.1-9.5-15.1-14.3
		c-3.9-3.6-7.7-7.3-11.6-10.9C-0.7,131,0,126.3,0,122.3c0-5.5,0-11,0-16.5c0-6.3,0-12.7,0-19c0-10.3,0,10.9,0,0.6
		c0-6.2,0-12.5,0-18.7c0-7.8,0-15.6,0-23.4c0-9.4,0-18.8,0-28.2c0-3.2,0-6.3,0-9.5c0-4.7,5-7.5,9.2-7.5c0.7,0,1.5,0,2.2,0
		c10.3,0,20.5,0,30.8,0c5.4,0,10.8,0,16.2,0c10.6,0,21.3,0,31.9,0c5.2,0,10.4,0,15.5,0c10.8,0,21.6,0,32.3,0c5.2,0,10.3,0,15.5,0
		c10.7,0,21.4,0,32,0c4.1,0,8.6-0.4,11.7,3c1.5,1.6,1.9,3.5,1.9,5.6c0,1.7,0,3.5,0,5.2c0,10.1,0,20.2,0,30.3c0,6.9,0,13.8,0,20.8
		c0,6.8,0,13.6,0,20.5c0,10.1,0-11.2,0-1.1c0,6,0,11.9,0,17.9c0,8.7,0,17.4,0,26.1C199.4,130.3,198.1,132.5,196.6,133.9L196.6,133.9
		"/>
	<path class="st1" d="M199.4,8.6c0,1.7,0,3.5,0,5.2c0,10.1,0,20.2,0,30.3c0,6.9,0,13.8,0,20.8c0,5.5,0,11,0,16.6c0,0.9,0,1.9,0,2.8
		c0,0.4,0,0.7,0,1.1c0,1.9,0,2.7,0,2.8c0,4.7,0,9.3,0,14c0,8.7,0,17.4,0,26.1c0,2.1-1.3,4.3-2.8,5.7c-4.2,3.9-8.4,7.9-12.6,11.8
		v-14.4h-15.3v28.8c-2.3,2.2-4.7,4.4-7,6.6c-2.8,2.6-5.6,5.2-8.3,7.8v-43.3h-15.3V189c-3.1,2.9-6.2,5.9-9.3,8.8c-2,1.9-4,3.8-6,5.7
		v-72.1h-15.3v86.5c-1,0.8-2,1.6-3.1,2.2c-3.3,1.8-8.6,1.2-11.4-1.4c-0.3-0.3-0.6-0.5-0.8-0.8v-86.5H76.9v72.1
		c-2.8-2.6-5.6-5.3-8.4-7.9c-2.3-2.2-4.6-4.3-6.9-6.5v-57.6H46v43c-5.1-4.8-10.2-9.6-15.3-14.4v-28.8H15.3v14.3
		c-0.3-0.3-0.6-0.6-0.9-0.9c-3.9-3.6-7.7-7.3-11.6-10.9C-0.7,131,0,126.3,0,122.3c0-5.5,0-11,0-16.5c0-5.2,0-10.4,0-15.6
		c0-1,0-1.9,0-2.9c0-0.2,0-0.4,0-0.6c0-1.9,0-2.8,0-2.9c0-5.1,0-10.2,0-15.2C0,60.8,0,53,0,45.2C0,35.8,0,26.4,0,17
		c0-3.2,0-6.3,0-9.5C0,2.8,5,0,9.2,0c0.7,0,1.5,0,2.2,0c3.5,0,7.1,0,10.6,0v22.3h22.2V0.1c4.7,0,9.5,0,14.2,0c2.6,0,5.3,0,7.9,0
		v22.3h22.3V0.1c0.6,0,1.2,0,1.8,0c5.2,0,10.4,0,15.5,0c1.6,0,3.2,0,4.8,0v22.3h22.2V0.1c1.8,0,3.6,0,5.4,0c5.2,0,10.3,0,15.5,0
		c0.4,0,0.9,0,1.3,0v22.3h22.2V0.1c2.9,0,5.7,0,8.6,0c4.1,0,8.6-0.4,11.7,3C199,4.7,199.4,6.6,199.4,8.6z"/>
	<path class="st0" d="M117.6,76.6c2.3,2.7,3.4,6.3,3.4,10.7c0,3-0.5,5.6-1.5,8s-2.5,4.5-4.4,6.2s-4.3,3-7,4
		c-2.8,0.9-5.9,1.4-9.5,1.4c-7.3,0-14.1-2.2-20.3-6.5l6.4-12.1c2.2,2,4.5,3.5,6.7,4.4c2.2,1,4.4,1.5,6.5,1.5c2.5,0,4.3-0.6,5.5-1.7
		c1.2-1.1,1.8-2.4,1.8-3.8c0-0.9-0.2-1.6-0.5-2.3s-0.8-1.2-1.5-1.8s-1.6-1-2.8-1.5s-2.5-1-4.2-1.5c-1.9-0.6-3.8-1.3-5.7-2
		s-3.5-1.7-5-2.9c-1.4-1.2-2.6-2.8-3.5-4.6c-0.9-1.9-1.3-4.2-1.3-7.1s0.5-5.5,1.4-7.8s2.3-4.3,4-6s3.8-2.9,6.3-3.9
		c2.5-0.9,5.2-1.4,8.3-1.4c2.9,0,5.8,0.4,9,1.2c3.1,0.8,6.1,2,9,3.5l-6,11.7c-1.6-1.3-3.3-2.3-4.9-2.9c-1.6-0.6-3.2-1-4.8-1
		c-1.9,0-3.5,0.5-4.7,1.4s-1.8,2.1-1.8,3.6c0,1,0.3,1.9,0.9,2.5c0.6,0.7,1.4,1.2,2.4,1.7s2.1,0.9,3.4,1.3c1.2,0.4,2.5,0.7,3.7,1.1
		C111.7,71.7,115.3,73.9,117.6,76.6z M22.1,60.3H38v45.1h15V60.3h15.9V47.6H22.1V60.3z M130.4,60.3h15.9v45.1h15V60.3h15.9V47.6
		h-46.9v12.7H130.4z M194.6,47.5c0,1.8-0.6,3.3-1.9,4.5c-1.2,1.2-2.7,1.9-4.5,1.9s-3.3-0.6-4.5-1.9c-1.2-1.2-1.9-2.7-1.9-4.5
		c0-1,0.2-1.9,0.6-2.7c0.4-0.9,1-1.6,1.7-2.2c1.2-1,2.5-1.5,4-1.5c1,0,1.9,0.2,2.7,0.6c1.1,0.5,2,1.3,2.7,2.3
		C194.3,45.2,194.6,46.3,194.6,47.5z M193.6,47.5c0-0.8-0.2-1.6-0.6-2.5c-0.4-0.8-0.9-1.4-1.6-1.9c-0.9-0.7-2-1-3.1-1
		c-1.4,0-2.7,0.5-3.7,1.6S183,46,183,47.5s0.5,2.8,1.6,3.9c1,1.1,2.3,1.6,3.8,1.6s2.7-0.5,3.8-1.6C193.1,50.3,193.6,49.1,193.6,47.5
		z M188.9,48.2l2.4,3.1h-1.7l-2.2-2.9v2.9H186V44h1.5c1,0,1.8,0.2,2.2,0.5c0.5,0.4,0.8,1,0.8,1.7c0,0.5-0.1,0.9-0.4,1.3
		C189.8,47.7,189.5,48,188.9,48.2L188.9,48.2z M189.2,46.1c0-0.6-0.5-1-1.5-1h-0.3v2h0.2C188.7,47.1,189.2,46.8,189.2,46.1z"/>
</g>
</svg>
