<?xml version="1.0" encoding="utf-8"?>
<!-- Generator: Adobe Illustrator 25.2.1, SVG Export Plug-In . SVG Version: 6.00 Build 0)  -->
<svg version="1.1" id="CTRL" xmlns="http://www.w3.org/2000/svg" xmlns:xlink="http://www.w3.org/1999/xlink" x="0px" y="0px"
	 viewBox="0 0 185.04 108" style="enable-background:new 0 0 185.04 108;" xml:space="preserve">
<style type="text/css">
	.st0{fill:#FFFFFF;}
</style>
<g>
	<ellipse class="st0" cx="32.72" cy="28.38" rx="6.02" ry="5.21"/>
	<path class="st0" d="M39.92,45.67c-4.1,0-7.44,3.17-7.44,7.07c0,3.9,3.34,7.07,7.44,7.07c4.1,0,7.44-3.17,7.44-7.07
		C47.36,48.84,44.03,45.67,39.92,45.67z"/>
	<path class="st0" d="M185,58.38l-0.12-2.37l-0.19-2.33l-0.27-2.25L184,48.65l-0.5-2.48l-0.62-2.44l-0.74-2.44l-0.89-2.48l-1.4-3.26
		l-1.32-2.64l-1.51-2.72l-2.13-3.61c-1.56-2.49-4.69-7.57-6.17-10.09l-1.51-2.64l-0.62-0.97l-0.85-1.12l-0.7-0.74l-0.78-0.7
		l-0.81-0.58l-0.54-0.31L162,9l-0.93-0.35l-1.12-0.27l-1.01-0.12c-0.96,0-2.86-0.15-3.92,0l-1.01,0.12l-1.05,0.23l-0.97,0.31
		l-0.89,0.43l-0.97,0.62l-0.78,0.62l-0.7,0.7L148,12.14l-0.62,1.05l-0.5,1.12l-0.35,0.93l-0.54,2.06l-0.16,0.39l-0.12,0.16
		l-0.27,0.31l-0.16,0.12l-0.31,0.16l-3.84,0.16l-2.68,0.11h-0.47l-0.19-0.04l-0.54-0.23l-0.35-0.27l-0.12-0.12l-0.04-0.89
		l-0.16-2.68l-0.08-0.89l-0.19-0.97l-0.19-0.7l-0.35-1.05l-0.39-1.01l-0.78-1.51l-0.81-1.32l-1.05-1.36l-1.01-1.12l-0.7-0.66
		l-0.78-0.66l-1.05-0.74l-1.09-0.62l-1.12-0.54l-1.36-0.54l-1.2-0.35l-0.93-0.19l-1.55-0.19L120.92,0H64.36l-1.05,0.04l-0.97,0.12
		L61.1,0.39L59.9,0.7l-1.2,0.43l-1.05,0.47l-1.09,0.58l-1.05,0.7l-0.97,0.78l-1.09,1.01l-0.66,0.7l-0.58,0.7l-0.74,1.01L50.7,8.3
		l-0.58,1.05l-0.35,0.7l-0.35,0.85l-0.35,1.05l-0.19,0.7l-0.19,1.12l-0.16,3.96L48.38,18l-0.26,0.29l-0.25,0.18l-0.39,0.19
		l-0.35,0.08h-0.47l-2.78-0.13l-3.77-0.14l-0.31-0.16l-0.16-0.12l-0.27-0.31l-0.12-0.16l-0.16-0.39l-0.54-2.13l-0.39-1.05
		l-0.43-0.93l-0.54-0.85l-0.47-0.62l-0.66-0.74l-0.74-0.66L34.41,9.7l-0.89-0.47l-1.05-0.43l-1.01-0.27l-1.01-0.16l-1.01-0.04h-3.22
		l-1.01,0.08c-0.24,0.04-0.78,0.15-1.01,0.19l-0.93,0.31l-1.16,0.54l-0.85,0.54l-0.78,0.62l-0.85,0.85l-0.7,0.85l-0.58,0.81
		c-1.98,3.37-6.07,10.12-8.15,13.42l-2.13,3.61L6.56,32.9l-1.32,2.64L3.8,38.79l-0.89,2.48l-0.74,2.44l-0.62,2.44l-0.5,2.48
		l-0.39,2.52l-0.31,2.52l-0.19,2.52l-0.12,2.52L0,61.25l0.04,2.56l0.16,3.06l0.27,2.91l0.35,2.68l0.35,2.25l0.5,2.79l0.66,3.03
		l0.89,3.65l1.09,4.03c0.58,2.05,1.81,6.25,2.44,8.26l0.31,0.85l0.39,0.78l0.35,0.5l0.58,0.7l0.66,0.62l0.47,0.35l0.81,0.5
		l0.93,0.43l1.55,0.54l1.36,0.31l2.29,0.35l2.6,0.27l3.41,0.19h1.01l1.01-0.08l0.5-0.12l0.89-0.23l0.81-0.35l0.62-0.35l0.7-0.5
		l0.62-0.58l0.5-0.62v0.04l0.74-0.93l0.47-0.74l0.35-0.78c0.08-0.24,0.75-2.35,0.81-2.52l0.19-0.27l0.35-0.35l0.27-0.19l0.47-0.23
		L33.09,94l0.54-0.04h14.63L48.65,94l0.23,0.04l0.43,0.19l0.19,0.12c0.11,0.11,0.4,0.4,0.5,0.5l1.2,2.44l2.72,4.69l1.47,2.06
		l1.86,1.67l2.17,1.24l2.41,0.78l2.48,0.27h56.56l2.48-0.27l2.41-0.78l2.17-1.24l1.86-1.67l1.47-2.06l2.72-4.69l1.12-2.33l0.16-0.19
		l0.31-0.35l0.19-0.12l0.43-0.19l0.19-0.08l0.47-0.04h14.66h0.27l0.5,0.12l0.19,0.08l0.62,0.35l0.35,0.35l0.12,0.19l0.19,0.43
		l0.58,1.9l0.31,0.81l0.43,0.78l0.35,0.47l1.12,1.32l0.5,0.47l0.74,0.5l0.78,0.43l0.47,0.19l0.89,0.27l0.93,0.19l0.54,0.04h1.12
		l2.83-0.16l3.38-0.31l2.29-0.35l1.36-0.31l1.59-0.54l0.66-0.31l0.78-0.47c0.17-0.14,0.52-0.41,0.7-0.54l0.5-0.5l0.58-0.7l0.47-0.74
		l0.35-0.7l0.31-0.81c0.99-3.28,2.33-7.79,3.22-11.09l0.85-3.41l0.7-3.06l0.7-3.72c0.14-0.9,0.51-3.16,0.62-4.03l0.27-2.6l0.19-2.56
		l0.12-2.56l0.04-2.56L185,58.38z M22.08,32.75c0-2.35,1.01-4.6,2.84-6.32c0.01-0.01,0.03-0.01,0.04-0.02
		c0.95-3.05,4.07-5.29,7.76-5.29s6.8,2.24,7.76,5.29c0.01,0.01,0.03,0.01,0.04,0.02c1.83,1.72,2.84,3.97,2.84,6.32
		c0,5.12-4.77,9.29-10.64,9.29C26.85,42.05,22.08,37.88,22.08,32.75z M39.92,61.85c-5.23,0-9.48-4.09-9.48-9.11
		c0-5.03,4.25-9.11,9.48-9.11c5.23,0,9.48,4.09,9.48,9.11C49.4,57.77,45.15,61.85,39.92,61.85z M119.4,81.92
		c0,0.06-0.01,0.11-0.01,0.17l-0.11,0.68c-0.02,0.11-0.05,0.21-0.11,0.31l-0.34,0.64c-0.05,0.09-0.11,0.17-0.18,0.24l-0.49,0.49
		c-0.07,0.07-0.16,0.13-0.25,0.18l-0.64,0.34c-0.1,0.05-0.2,0.09-0.31,0.1l-0.68,0.11c-0.06,0.01-0.11,0.01-0.17,0.01H69.24
		c-0.06,0-0.11-0.01-0.17-0.01l-0.68-0.11c-0.11-0.02-0.21-0.05-0.31-0.1l-0.64-0.34c-0.09-0.05-0.17-0.11-0.24-0.18l-0.49-0.49
		c-0.07-0.07-0.12-0.14-0.17-0.22l-0.34-0.6c-0.06-0.11-0.1-0.22-0.12-0.34l-0.11-0.72c-0.01-0.05-0.01-0.11-0.01-0.16V18.68
		c0-0.05,0-0.11,0.01-0.16l0.11-0.72c0.02-0.11,0.05-0.22,0.11-0.32l0.34-0.64c0.05-0.09,0.11-0.17,0.18-0.24l0.49-0.49
		c0.07-0.07,0.15-0.13,0.24-0.18l0.64-0.34c0.1-0.05,0.2-0.09,0.31-0.1l0.68-0.11c0.06-0.01,0.11-0.01,0.17-0.01h46.88
		c0.06,0,0.11,0.01,0.17,0.01l0.68,0.11c0.11,0.02,0.21,0.05,0.31,0.1l0.64,0.34c0.09,0.05,0.17,0.11,0.25,0.18l0.49,0.49
		c0.07,0.07,0.13,0.15,0.18,0.24l0.34,0.64c0.05,0.1,0.09,0.21,0.11,0.32l0.11,0.72c0.01,0.05,0.01,0.11,0.01,0.16V81.92z
		 M152.66,42.05c-5.87,0-10.64-4.17-10.64-9.29c0-2.35,1.01-4.6,2.84-6.32c0.01-0.01,0.03-0.01,0.04-0.02
		c0.95-3.05,4.07-5.29,7.76-5.29c3.69,0,6.8,2.24,7.76,5.29c0.01,0.01,0.03,0.01,0.04,0.02c1.83,1.72,2.84,3.97,2.84,6.32
		C163.3,37.88,158.53,42.05,152.66,42.05z"/>
	<path class="st0" d="M152.66,33.59c3.32,0,6.03-2.34,6.03-5.21s-2.7-5.21-6.03-5.21c-3.32,0-6.02,2.34-6.02,5.21
		S149.34,33.59,152.66,33.59z"/>
	<path class="st0" d="M152.66,35.63c-4.44,0-8.06-3.25-8.06-7.24c-0.39,0.88-0.62,1.81-0.62,2.77c0,4.2,3.9,7.62,8.68,7.62
		c4.79,0,8.68-3.42,8.68-7.62c0-0.96-0.23-1.89-0.62-2.77C160.72,32.38,157.1,35.63,152.66,35.63z"/>
	<path class="st0" d="M41.4,31.16c0-0.96-0.23-1.89-0.62-2.77c-0.01,3.99-3.62,7.24-8.06,7.24c-4.44,0-8.06-3.25-8.06-7.24
		c-0.39,0.88-0.62,1.81-0.62,2.77c0,4.2,3.9,7.62,8.68,7.62C37.51,38.78,41.4,35.36,41.4,31.16z"/>
</g>
</svg>
